<?xml version="1.0" encoding="utf-8"?>
<!-- Generator: Adobe Illustrator 24.2.1, SVG Export Plug-In . SVG Version: 6.00 Build 0)  -->
<svg version="1.1" xmlns="http://www.w3.org/2000/svg" xmlns:xlink="http://www.w3.org/1999/xlink" x="0px" y="0px"
	 viewBox="0 0 320 240" style="enable-background:new 0 0 320 240;" xml:space="preserve">
<style type="text/css">
	.st0{fill:#B17F4A;stroke:#7D4E24;stroke-miterlimit:10;}
	.st1{fill:none;stroke:#7D4E24;stroke-miterlimit:10;}
	.st2{fill:#7D4E24;stroke:#7D4E24;stroke-miterlimit:10;}
	.st3{fill:#CA9E67;stroke:#936037;stroke-miterlimit:10;}
	.st4{fill:#432918;stroke:#432918;stroke-miterlimit:10;}
	.st5{fill:#DADADA;stroke:#9D9D9C;stroke-miterlimit:10;}
	.st6{stroke:#000000;stroke-miterlimit:10;}
	.st7{fill:#B17F4A;}
</style>
<g id="dog_2">
	<path class="st0" d="M48.78,153.26c0,0-3.23-27.18,19.38-27.96c22.61-0.78,120.62-10.96,133.26-34.42c0,0-10.28-12.15-5.76-19.42
		c0,0,10.72-9.05,10.82-12.09c0,0,17.9,3.83,28.02-3.34c0,0,12.68,12.78,33.14,12.19c0,0,10.03-0.79,4.52,7.18
		s-11.01,12.09-20.45,14.16c-9.44,2.06-14.85,0.1-14.85,0.1s-19.17,9.27-1.38,23.42s12.94,42.99-8.22,45.42
		c0,0-8.41,4.16,3.12,14.87c0,0,11.53,6.9,4.55,8.12s-15.59,1.87-17.7-0.41c0,0,0.65-5.6-5.68-8.36c0,0-10.39-3.25-13.88-7.39
		c0,0-83.95,9.14-134.84,1.28c0,0-5.97,8.27,0.34,16.8c0,0,10.5,5.97,3.66,7.72c-6.85,1.75-14.03-0.34-14.03-0.34
		S31.27,162.19,48.78,153.26z"/>
	<path class="st1" d="M201.42,90.88"/>
	<path class="st0" d="M201.42,90.88c0,0,6.81,6.05,9.87,4.62s4.35-2.83,5.85-13.08c1.5-10.25,0.07-13.19,0.07-13.19"/>
	<path class="st0" d="M197.67,165.33c0,0-4.32-6.08-5.85-8.32"/>
	<path class="st2" d="M234.18,156.92c0,0-2.63,4.45,2.03,8.55c4.67,4.1,5.57,3.28,5.23,5.75c-0.35,2.46-7.47,3.76-9.33,3.28
		s-6.35-6.52-6.35-6.52s-2.12-3.76-1.21-6.22s2.72-3.27,2.72-3.27S232.67,158,234.18,156.92z"/>
	<path class="st2" d="M68.75,167.46c0,0-1.63,6.76,0.62,8.34c2.25,1.58,9.52,4.23,8.34,7.16s-5.3,2.87-5.3,2.87l-6.7-0.96
		c0,0-2.39-1.42-2.54-1.47c-0.15-0.04-6.31-7.22-0.34-16.8L68.75,167.46z"/>
	<path class="st0" d="M52.3,133.72c0,0-9.49-2.37-11.14-6.98c0,0-1.85,10.94,7.38,18.25C48.54,144.98,50.19,135.76,52.3,133.72z"/>
</g>
<g id="bun">
	<path class="st3" d="M67.12,120.94c0,0,5.28-14.88,30.87-11.61s75.93-5.89,84.52-9.97c8.58-4.09,12,7.41,12.85,10.4
		c0.85,2.99,2.47,39.43-8.04,51.07c-10.52,11.64-32.38,12.26-32.38,12.26s-42.28,0.61-56.1-1.84
		c-13.82-2.45-27.13-16.07-29.29-18.79C67.39,149.74,61.39,138.04,67.12,120.94z"/>
</g>
<g id="hund_öga">
	<ellipse class="st4" cx="235.53" cy="67.83" rx="1.43" ry="3.32"/>
	<path class="st4" d="M267.03,75.11c0,0,3.47-0.38,4.37,0.05s5.18-4.18,0.9-7.08S265.75,73.78,267.03,75.11z"/>
</g>
<g id="korv_hatt">
	<path class="st5" d="M204.17,57.72c0,0,18.66,5.47,31.77-3.5c0,0,0.3-3.73-3.59-7.25c0,0-14.25,4.37-23.19,1.14
		C209.16,48.12,204.63,49.45,204.17,57.72z"/>
	<path class="st5" d="M215.46,41.48c0,0,3.64,1.25,9.41-0.28c0,0,4.1,2.92,5.5,6.1c0,0-9.43,3.08-19.78,1.21
		C210.59,48.51,214.32,41.28,215.46,41.48z"/>
</g>
<g id="text">
	<path class="st6" d="M91.12,111.25c10.14-3-0.72,11.73-1.53,19.27c-0.82,7.55,13.08-19.68,17.17-16.21
		c4.09,3.47-7.15,22.44-12.88,22.95c-5.72,0.51-1.74,16.11,3.17,16.72s-3.58,14.99-10.93,7.95s-1.23-24.27-1.23-24.27
		s0.2-2.14-2.86-1.02c-3.07,1.12-7.05,15.4-6.44,17.44c0.61,2.04-6.85-2.14-4.7-7.75C73.03,140.72,85.6,112.88,91.12,111.25z"/>
	<path class="st6" d="M133.45,132.99c-0.67-15.1-7.61-17.76-11.91-18.65c-4.31-0.89-11.6,3.43-15.11,22.29
		c-3.51,18.86,0.03,28.03,5.66,29.74C119.36,168.58,134.13,148.09,133.45,132.99z M116.69,146.24c-5.5-1.01-4.69-8.19-4.69-8.19
		s-1.05-10.7,6.08-10.3c7.13,0.39,6.47,8.82,6.33,9.48C124.28,137.88,122.88,147.38,116.69,146.24z"/>
	<path class="st6" d="M167.13,109.63c6.63-0.66,8.53,34.72,10.43,37.55c1.9,2.83,6.25-36.03,10.53-36.78
		c4.28-0.75,2.12,34.96-7.24,47.52s-17.44-43.82-17.44-43.82S162.72,110.07,167.13,109.63z"/>
	<path class="st6" d="M163.27,158.68c-8.07-1.06-23.36-17.98-12.6-16.11c10.76,1.87,9.35-17.31,8.05-22.85
		c-1.3-5.55-19.39-10.18-26.29-3.89c-2.25,2.06,0.68,2.23,2.41,7.43c1.73,5.2,0.28,37.69-0.73,43c-1.02,5.31,14.21,1.07,12.38-0.44
		c-1.83-1.51-8.03-19.46-4.68-19.78c3.34-0.32,5.23,12.82,9.02,18.75C154.63,170.71,171.35,159.73,163.27,158.68z M141.76,132.86
		c-4.68-2.46-0.06-10.11-0.06-10.11c6.41-1.85,12.54,1.23,10.61,5.1C150.39,131.72,146.45,135.32,141.76,132.86z"/>
</g>
<g id="Lager_6">
	<g>
		<g>
			<path class="st7" d="M71.49,90.26c6.54,0.04,12.94-3.93,15.56-9.97c0.45-1.04,0.46-2.18-0.39-3.03
				c-0.77-0.77-2.09-0.98-3.03-0.39c-4.51,2.82-5.68,8.65-6.93,13.43c-0.71,2.71-1.38,5.44-2.25,8.11
				c-0.69,2.11-1.51,4.11-3.29,5.52c1.31,0.17,2.62,0.34,3.93,0.51c0.3,0.6,0.04,0.6,0.37,0.06c0.21-0.34,0.47-0.67,0.71-0.99
				c0.51-0.65,1.05-1.28,1.61-1.89c1.13-1.22,2.34-2.37,3.65-3.4c0.65-0.51,1.33-0.99,2.02-1.44c0.28-0.18,0.9-0.41,1.06-0.67
				c0.35-0.56-1.48-0.43-1.35-0.66c-0.02,0.03-0.05,1.18-0.07,1.45c-0.05,0.7-0.02,1.49,0.18,2.16c0.52,1.75,2.04,2.99,3.9,2.92
				c2.1-0.08,3.52-1.76,4.17-3.61c1.32-3.76,2.17-7.75,3.23-11.58c0.86-3.11-3.96-4.43-4.82-1.33c-0.56,2.03-1.13,4.06-1.69,6.09
				c-0.3,1.09-0.61,2.19-0.91,3.28c-0.13,0.47-0.26,0.94-0.39,1.41c-0.03,0.11-0.35,0.83-0.33,0.96c0.36-0.36,0.83-0.31,1.4,0.14
				c0.09,0.13,0.18,0.27,0.27,0.4c-0.09,0.1-0.02-0.48-0.01-0.68c0.03-0.68,0.13-1.29,0.05-1.97c-0.21-1.94-1.4-3.88-3.54-3.99
				c-1.9-0.1-3.57,1.25-5.03,2.32c-1.51,1.11-2.97,2.31-4.3,3.63c-2.48,2.46-6.35,6.16-4.49,9.92c0.78,1.58,2.77,1.43,3.93,0.51
				c3.94-3.14,5.03-8.97,6.23-13.58c0.69-2.64,1.34-5.29,2.21-7.88c0.6-1.79,1.34-3.78,3.02-4.83c-1.14-1.14-2.28-2.28-3.42-3.42
				c-1.95,4.5-6.29,7.53-11.24,7.5C68.27,85.24,68.27,90.24,71.49,90.26L71.49,90.26z"/>
		</g>
	</g>
	<g>
		<g>
			<path class="st7" d="M97.73,92.21c4.31-0.63,8.39-2.84,11.35-6.02c-1.31-1.01-2.62-2.02-3.93-3.03c-1.3,1.96-2.47,4.02-3.47,6.15
				c-1.03,2.2-2.09,4.56-2.65,6.93c-0.66,2.82,0.3,5.54,3.14,6.6c2.4,0.9,4.64-0.2,6.97-0.71c1.32-0.29,2.09-1.82,1.75-3.08
				c-0.37-1.36-1.75-2.04-3.08-1.75c-0.93,0.2-1.82,0.55-2.74,0.77c-0.06,0.02-0.75,0.14-0.47,0.11c0.25-0.03-0.37,0.01-0.36,0
				c-0.24,0.01-0.25-0.01,0,0.03c-0.22-0.04-0.43-0.09-0.64-0.17c0.39,0.14,0.02-0.03,0.02-0.03c0.19,0.16,0.23,0.18,0.1,0.06
				c-0.1-0.1-0.1-0.1-0.01,0.01c0.2,0.23,0.05,0.28,0.05,0c-0.01,0.37,0.02-0.02,0.02-0.19c0-0.24-0.08,0.21,0.03-0.21
				c0.05-0.21,0.1-0.41,0.16-0.62c0.13-0.45,0.28-0.9,0.44-1.34c1.21-3.5,2.92-6.86,5.05-10.06c1.57-2.36-2-5.1-3.93-3.03
				c-2.49,2.67-5.41,4.19-9.15,4.74c-1.34,0.2-2.07,1.89-1.75,3.08C95.04,91.9,96.38,92.4,97.73,92.21L97.73,92.21z"/>
		</g>
	</g>
	<g>
		<g>
			<path class="st7" d="M111.22,88.16c-0.09,2.88-0.19,5.76-0.28,8.64c-0.04,1.24,0.98,2.3,2.17,2.46c1.2,0.16,2.44-0.58,2.74-1.79
				c0.13-0.53,0.29-1.05,0.47-1.56c0.09-0.26,0.19-0.51,0.29-0.76c-0.23,0.58,0.11-0.23,0.16-0.33c0.44-0.92,0.97-1.8,1.56-2.62
				c0.08-0.11,0.16-0.22,0.24-0.33c-0.18,0.24-0.19,0.25-0.01,0.03c0.18-0.21,0.35-0.42,0.53-0.62c0.36-0.4,0.74-0.79,1.14-1.16
				c0.2-0.18,0.4-0.36,0.61-0.54c0.1-0.09,0.21-0.17,0.32-0.26c-0.24,0.18-0.25,0.19-0.02,0.02c0.23-0.16,0.45-0.33,0.69-0.47
				c0.12-0.08,0.24-0.14,0.37-0.21c-0.1,0.08-0.21,0.12-0.33,0.11c-0.19,0.01-0.17,0.01,0.05,0.01c-0.38-0.07-0.43-0.06-0.16,0
				c-0.33-0.15-0.38-0.16-0.13-0.03c-0.27-0.22-0.3-0.24-0.09-0.06c0.09,0.08,0.17,0.17,0.25,0.27c-0.19-0.26-0.21-0.28-0.05-0.06
				c0.13,0.22,0.26,0.42,0.37,0.65c0.06,0.12,0.12,0.25,0.18,0.38c-0.1-0.24-0.1-0.23,0.01,0.04c0.1,0.29,0.21,0.58,0.31,0.87
				c0.17,0.55,0.32,1.11,0.44,1.67c0.06,0.26,0.11,0.53,0.15,0.79c0.02,0.1,0.15,1.04,0.08,0.48c0.07,0.62,0.13,1.24,0.17,1.86
				c0.08,1.24,0.11,2.49,0.13,3.73c0.02,1.31,1.13,2.56,2.5,2.5c1.33-0.06,2.53-1.1,2.5-2.5c-0.04-2.37-0.14-4.72-0.5-7.06
				c-0.33-2.12-0.94-4.49-2.24-6.24c-0.85-1.15-1.95-2.04-3.41-2.24c-1.41-0.19-2.69,0.36-3.81,1.19c-1.82,1.34-3.35,2.89-4.67,4.73
				c-1.36,1.91-2.35,4.12-2.93,6.39c1.64,0.22,3.27,0.44,4.91,0.66c0.09-2.88,0.19-5.76,0.28-8.64c0.04-1.31-1.18-2.56-2.5-2.5
				C112.32,85.72,111.26,86.76,111.22,88.16L111.22,88.16z"/>
		</g>
	</g>
	<g>
		<g>
			<path class="st7" d="M134.03,95.27c2.36-0.84,4.37-2.23,5.89-4.24c0.66-0.87,1.31-1.86,1.56-2.94c0.38-1.69-0.56-3.32-2.17-3.9
				c-2.07-0.75-4.55,0.3-6.34,1.36c-1.96,1.16-3.55,2.78-4.89,4.6c-2.61,3.55-5.28,9.28-2.05,13.17c3.3,3.98,8.94,3.14,12.79,0.54
				c4.73-3.18,8.88-7.53,12.45-11.94c0.85-1.05,1.03-2.51,0-3.54c-0.88-0.88-2.68-1.06-3.54,0c-2.6,3.22-5.47,6.21-8.6,8.91
				c-1.45,1.26-3,2.63-4.8,3.37c-1.32,0.55-2.59,0.62-3.62,0.09c-0.55-0.28-0.85-0.54-1.08-0.93c-0.24-0.42-0.2-0.92,0.05-1.79
				c0.45-1.57,1.16-3.05,2.05-4.42c0.79-1.22,1.78-2.38,2.95-3.23c0.58-0.43,1.28-0.84,1.92-1.09c0.4-0.16,0.82-0.25,1.23-0.38
				c-0.25,0.02-0.22,0.02,0.1,0.01c-0.27,0.01-0.52-0.08-0.75-0.27c-0.21-0.37-0.43-0.74-0.64-1.1c0.23-0.8,0.25-1.01,0.07-0.62
				c-0.05,0.1-0.1,0.2-0.16,0.3c-0.14,0.25-0.28,0.49-0.45,0.72c-0.27,0.38-0.6,0.72-0.94,1.04c-0.68,0.64-1.5,1.14-2.37,1.45
				c-1.27,0.45-2.12,1.71-1.75,3.08C131.29,94.75,132.75,95.72,134.03,95.27L134.03,95.27z"/>
		</g>
	</g>
	<g>
		<g>
			<path class="st7" d="M148.18,85.07c-0.1,3.59-0.2,7.18-0.29,10.76c1.67,0,3.33,0,5,0c0-2,0.09-4,0.35-5.98
				c-0.03,0.25,0-0.03,0.02-0.12c0,0.02,0.14-0.64,0.08-0.41c-0.04,0.14,0.24-0.23-0.03,0.04c0.04-0.04,0.49-0.42,0.25-0.24
				c-0.25,0.18,0.31-0.19,0.37-0.22c0.19-0.11,0.38-0.22,0.57-0.32c0.19-0.1,0.39-0.19,0.59-0.29c0.08-0.04,0.16-0.07,0.24-0.11
				c-0.15,0.06-0.15,0.06,0.01,0c3.51-1.39,7.15-2.5,10.83-3.37c1.27-0.3,2.15-1.82,1.75-3.08c-0.43-1.33-1.71-2.07-3.08-1.75
				c-4.19,0.99-8.48,2.21-12.39,4.03c-2.04,0.95-3.73,2.42-4.07,4.74c-0.34,2.34-0.5,4.7-0.49,7.07c0,1.31,1.15,2.56,2.5,2.5
				c1.38-0.06,2.46-1.1,2.5-2.5c0.1-3.59,0.2-7.18,0.29-10.76c0.04-1.31-1.18-2.56-2.5-2.5C149.3,82.63,148.22,83.66,148.18,85.07
				L148.18,85.07z"/>
		</g>
	</g>
	<g>
		<g>
			<path class="st7" d="M95.59,78.49c21,1.35,42.02,2.34,63.05,2.95c3.22,0.09,3.22-4.91,0-5c-21.03-0.61-42.06-1.6-63.05-2.95
				c-1.35-0.09-2.5,1.21-2.5,2.5C93.09,77.41,94.23,78.4,95.59,78.49L95.59,78.49z"/>
		</g>
	</g>
	<g>
		<g>
			<path d="M185.85,86.62c-7.43,1.23-11.98-5.64-15.42-11.1c-0.94-1.5-2.03-3.15-2.45-4.89c-0.36-1.49,0.37-2.55,1.41-3.55
				c2.03-1.97,5.19-3.15,7.99-2.4c7.06,1.91-0.89,11.42-3.41,14.14c-2.33,2.52-4.87,4.85-7.27,7.31c-2.34,2.41-5.89,5.54-5.39,9.24
				c0.68,5.03,6.87,5.07,10.43,3.42c3.9-1.8,6.12-5.62,9.27-8.35c1.02-0.88,0.91-2.63,0-3.54c-1.01-1.01-2.51-0.89-3.54,0
				c-2.74,2.37-4.77,6.11-8.22,7.55c-0.69,0.29-1.49,0.48-2.24,0.39c-0.22-0.02-0.38-0.1-0.6-0.13c-0.03,0-0.27-0.16-0.28-0.18
				c0.07,0.08,0.06,0.27,0.11,0.12c0.39-1.43,1.78-2.65,2.76-3.71c4.98-5.36,11.01-10.02,14.39-16.66
				c1.89-3.72,2.79-8.28-0.15-11.72c-2.36-2.76-6.35-3.46-9.77-2.91c-3.74,0.6-7.47,2.9-9.47,6.15c-2.45,3.99-0.31,8.29,1.88,11.85
				c1.18,1.92,2.51,3.77,3.86,5.57c1.33,1.77,2.72,3.52,4.46,4.91c3.72,2.97,8.3,4.06,12.98,3.28c1.33-0.22,2.08-1.87,1.75-3.08
				C188.54,86.95,187.19,86.4,185.85,86.62L185.85,86.62z"/>
		</g>
	</g>
	<g>
		<g>
			<path d="M180.67,82.38c-0.05,0.06-0.09,0.12-0.14,0.18c0.13-0.17,0.26-0.34,0.39-0.51c-1.67,2.15-3.49,4.19-5.43,6.1
				c-0.94,0.92-0.99,2.63,0,3.54c1.01,0.92,2.54,0.98,3.54,0c2.16-2.11,4.13-4.39,5.97-6.79c0.37-0.48,0.4-1.38,0.25-1.93
				c-0.16-0.58-0.61-1.21-1.15-1.49c-0.58-0.31-1.28-0.46-1.93-0.25c-0.2,0.08-0.4,0.17-0.6,0.25C181.2,81.7,180.9,82,180.67,82.38
				L180.67,82.38z"/>
		</g>
	</g>
</g>
</svg>
